<svg xmlns="http://www.w3.org/2000/svg" x="0px" y="0px" width="100" height="100" viewBox="0,0,256,256">
<g fill="#f56e00" fill-rule="nonzero" stroke="none" stroke-width="1" stroke-linecap="butt" stroke-linejoin="miter" stroke-miterlimit="10" stroke-dasharray="" stroke-dashoffset="0" font-family="none" font-weight="none" font-size="none" text-anchor="none" style="mix-blend-mode: normal"><g transform="scale(3.55556,3.55556)"><path d="M62.991,18.668c1.854,1.2 2.386,3.677 1.186,5.531l-4.642,7.173c0.294,1.5 0.465,3.043 0.465,4.628c0,13.25 -10.75,24 -24,24c-13.25,0 -24,-10.75 -24,-24c0,-13.25 10.75,-24 24,-24c5.99,0 11.46,2.2 15.67,5.83l-14.19,21.93l-8.15,-9.33c-1.09,-1.25 -2.98,-1.38 -4.23,-0.29c-1.25,1.09 -1.38,2.98 -0.29,4.23l10.76,12.34c0.58,0.65 1.4,1.03 2.26,1.03c0.08,0 0.15,-0.01 0.22,-0.01c0.94,-0.07 1.79,-0.57 2.3,-1.36l17.11,-26.516c1.2,-1.856 3.675,-2.387 5.531,-1.186z"></path></g></g>
</svg>